<svg xmlns="http://www.w3.org/2000/svg" viewBox="0 0 1200 760" role="img" aria-labelledby="title desc">
  <title id="title">梅西与亚马尔决赛对决视觉图</title>
  <desc id="desc">阿根廷十号与西班牙十九号在世界杯决赛球场灯光下相对而立的海报式视觉图。</desc>
  <defs>
    <linearGradient id="sky" x1="0" x2="1" y1="0" y2="1">
      <stop offset="0" stop-color="#102747"/>
      <stop offset="0.45" stop-color="#17324d"/>
      <stop offset="1" stop-color="#6f1d1b"/>
    </linearGradient>
    <linearGradient id="pitch" x1="0" x2="1">
      <stop offset="0" stop-color="#99d7f6"/>
      <stop offset="0.48" stop-color="#f8faf7"/>
      <stop offset="0.52" stop-color="#f5d35d"/>
      <stop offset="1" stop-color="#d9272e"/>
    </linearGradient>
    <radialGradient id="light" cx="50%" cy="12%" r="68%">
      <stop offset="0" stop-color="#fff7cf" stop-opacity="0.95"/>
      <stop offset="0.26" stop-color="#fff7cf" stop-opacity="0.28"/>
      <stop offset="1" stop-color="#fff7cf" stop-opacity="0"/>
    </radialGradient>
    <filter id="softShadow" x="-20%" y="-20%" width="140%" height="140%">
      <feDropShadow dx="0" dy="24" stdDeviation="18" flood-color="#071528" flood-opacity="0.45"/>
    </filter>
  </defs>
  <rect width="1200" height="760" fill="url(#sky)"/>
  <rect width="1200" height="760" fill="url(#light)"/>
  <path d="M0 560c180-58 338-72 520-42 146 24 244 24 378-8 112-27 210-26 302 12v238H0Z" fill="#164f3a"/>
  <path d="M0 620c168-42 324-48 498-22 172 26 318 18 466-24 86-24 163-27 236-5v191H0Z" fill="url(#pitch)" opacity="0.82"/>
  <path d="M600 562v198" stroke="#fff7cf" stroke-width="4" stroke-opacity="0.72"/>
  <circle cx="600" cy="640" r="72" fill="none" stroke="#fff7cf" stroke-width="4" stroke-opacity="0.48"/>
  <g opacity="0.42">
    <circle cx="128" cy="140" r="42" fill="#fff7cf"/>
    <circle cx="1072" cy="140" r="42" fill="#fff7cf"/>
    <path d="M150 156c178 74 326 102 450 102s272-28 450-102" fill="none" stroke="#fff7cf" stroke-width="12" stroke-linecap="round" opacity="0.5"/>
  </g>
  <g filter="url(#softShadow)">
    <g transform="translate(185 170)">
      <path d="M142 78c44-22 93-12 116 22 22 33 14 80-18 108-36 31-91 30-126-1-41-36-30-105 28-129Z" fill="#f0c8a6"/>
      <path d="M96 106c35-70 142-82 190-21 18 23 23 55 11 88-22-36-53-53-95-53-49 0-84 17-106 52-16-20-16-43 0-66Z" fill="#2b1a14"/>
      <path d="M54 288c38-72 238-72 278 0 42 76 36 224 25 296H31C20 511 11 370 54 288Z" fill="#f8fbff"/>
      <path d="M88 270h52v314H79c-10-76-9-190 9-314Zm148 0h52c18 124 19 238 9 314h-61Z" fill="#8dd4f7"/>
      <path d="M143 270h92v314h-92Z" fill="#f8fbff"/>
      <path d="M0 342c36-58 78-76 126-55l-30 83c-25-2-49 13-72 45Z" fill="#8dd4f7"/>
      <path d="M386 342c-36-58-78-76-126-55l30 83c25-2 49 13 72 45Z" fill="#f8fbff"/>
      <text x="188" y="442" text-anchor="middle" font-family="Arial, sans-serif" font-size="118" font-weight="900" fill="#17324d">10</text>
      <text x="188" y="626" text-anchor="middle" font-family="Arial, sans-serif" font-size="44" font-weight="900" fill="#ffffff">MESSI</text>
    </g>
    <g transform="translate(710 160)">
      <path d="M146 86c42-25 96-15 121 20 25 36 12 88-27 115-42 29-95 22-125-15-31-38-16-93 31-120Z" fill="#b98261"/>
      <path d="M104 126c17-63 87-95 151-68 35 15 56 48 55 88-46-34-92-42-139-23-26 11-48 29-67 54-16-18-16-35 0-51Z" fill="#20150f"/>
      <path d="M38 296c41-80 258-80 300 0 36 69 30 214 20 288H17C8 509 2 365 38 296Z" fill="#cf222e"/>
      <path d="M92 278h50l-62 306H25c2-92 22-212 67-306Zm154 0h50c46 94 67 214 69 306h-55Z" fill="#f5d35d"/>
      <path d="M145 278h98v306h-98Z" fill="#cf222e"/>
      <path d="M0 358c36-60 78-82 127-62l-30 86c-25-3-51 12-76 45Z" fill="#cf222e"/>
      <path d="M376 358c-36-60-78-82-127-62l30 86c25-3 51 12 76 45Z" fill="#f5d35d"/>
      <text x="190" y="448" text-anchor="middle" font-family="Arial, sans-serif" font-size="118" font-weight="900" fill="#ffd94f">19</text>
      <text x="190" y="626" text-anchor="middle" font-family="Arial, sans-serif" font-size="44" font-weight="900" fill="#ffffff">YAMAL</text>
    </g>
  </g>
  <g font-family="Arial, sans-serif" text-anchor="middle">
    <text x="600" y="118" font-size="32" font-weight="900" fill="#fff7cf" letter-spacing="4">WORLD CUP FINAL</text>
    <text x="600" y="182" font-size="82" font-weight="900" fill="#ffffff">ARGENTINA × SPAIN</text>
    <text x="600" y="232" font-size="30" font-weight="800" fill="#fff7cf">LEGEND MEETS THE NEXT STAR</text>
  </g>
</svg>
